<?xml version="1.0" encoding="UTF-8" standalone="no" ?>
<!DOCTYPE svg PUBLIC "-//W3C//DTD SVG 1.1//EN" "http://www.w3.org/Graphics/SVG/1.1/DTD/svg11.dtd">
<svg xmlns="http://www.w3.org/2000/svg" xmlns:xlink="http://www.w3.org/1999/xlink" version="1.1" width="1080" height="1080" viewBox="0 0 1080 1080" xml:space="preserve">
<desc>Created with Fabric.js 5.2.4</desc>
<defs>
</defs>
<rect x="0" y="0" width="100%" height="100%" fill="transparent"></rect>
<g transform="matrix(1 0 0 1 540 540)" id="2b963192-8a6d-4198-ac49-fba0fdc374a7"  >
<rect style="stroke: none; stroke-width: 1; stroke-dasharray: none; stroke-linecap: butt; stroke-dashoffset: 0; stroke-linejoin: miter; stroke-miterlimit: 4; fill: rgb(255,255,255); fill-rule: nonzero; opacity: 1; visibility: hidden;" vector-effect="non-scaling-stroke"  x="-540" y="-540" rx="0" ry="0" width="1080" height="1080" />
</g>
<g transform="matrix(1 0 0 1 540 540)" id="dd082d76-8860-4a60-bdeb-87e7da4d8a8d"  >
</g>
<g transform="matrix(1 0 0 1 540 540)" id="b1e95d4c-f594-4868-8443-f8827074cbda"  >
<path style="stroke: rgb(0,0,0); stroke-width: 0; stroke-dasharray: none; stroke-linecap: butt; stroke-dashoffset: 0; stroke-linejoin: miter; stroke-miterlimit: 4; fill: rgb(255,255,255); fill-rule: nonzero; opacity: 1;" vector-effect="non-scaling-stroke"  transform=" translate(-224.05, -255.9)" d="M 224.1 141 C 160.5 141 109.19999999999999 192.3 109.19999999999999 255.9 C 109.19999999999999 319.5 160.5 370.8 224.1 370.8 C 287.7 370.8 339 319.5 339 255.9 C 339 192.3 287.7 141 224.1 141 z M 224.1 330.6 C 183 330.6 149.39999999999998 297.1 149.39999999999998 255.90000000000003 C 149.39999999999998 214.70000000000005 182.89999999999998 181.20000000000005 224.09999999999997 181.20000000000005 C 265.29999999999995 181.20000000000005 298.79999999999995 214.70000000000005 298.79999999999995 255.90000000000003 C 298.79999999999995 297.1 265.19999999999993 330.6 224.09999999999997 330.6 z M 370.5 136.3 C 370.5 151.20000000000002 358.5 163.10000000000002 343.7 163.10000000000002 C 328.8 163.10000000000002 316.9 151.10000000000002 316.9 136.3 C 316.9 121.5 328.9 109.50000000000001 343.7 109.50000000000001 C 358.5 109.50000000000001 370.5 121.50000000000001 370.5 136.3 z M 446.6 163.5 C 444.90000000000003 127.6 436.70000000000005 95.8 410.40000000000003 69.6 C 384.20000000000005 43.39999999999999 352.40000000000003 35.199999999999996 316.5 33.39999999999999 C 279.5 31.29999999999999 168.6 31.29999999999999 131.6 33.39999999999999 C 95.8 35.099999999999994 64 43.29999999999999 37.69999999999999 69.5 C 11.399999999999977 95.70000000000002 3.29999999999999 127.5 1.4999999999999858 163.4 C -0.6000000000000143 200.4 -0.6000000000000143 311.3 1.4999999999999858 348.3 C 3.199999999999986 384.2 11.399999999999986 416 37.69999999999999 442.20000000000005 C 63.99999999999999 468.4000000000001 95.69999999999999 476.6 131.6 478.40000000000003 C 168.6 480.50000000000006 279.5 480.50000000000006 316.5 478.40000000000003 C 352.4 476.70000000000005 384.2 468.50000000000006 410.4 442.20000000000005 C 436.59999999999997 416.00000000000006 444.79999999999995 384.20000000000005 446.59999999999997 348.30000000000007 C 448.7 311.30000000000007 448.7 200.50000000000006 446.59999999999997 163.50000000000006 z M 398.8 388 C 391 407.6 375.90000000000003 422.7 356.2 430.6 C 326.7 442.3 256.7 439.6 224.1 439.6 C 191.5 439.6 121.39999999999999 442.20000000000005 92 430.6 C 72.4 422.8 57.3 407.70000000000005 49.4 388 C 37.7 358.5 40.4 288.5 40.4 255.9 C 40.4 223.3 37.8 153.2 49.4 123.80000000000001 C 57.199999999999996 104.20000000000002 72.3 89.10000000000001 92 81.20000000000002 C 121.5 69.50000000000001 191.5 72.20000000000002 224.1 72.20000000000002 C 256.7 72.20000000000002 326.8 69.60000000000002 356.2 81.20000000000002 C 375.8 89.00000000000001 390.9 104.10000000000002 398.8 123.80000000000001 C 410.5 153.3 407.8 223.3 407.8 255.9 C 407.8 288.5 410.5 358.6 398.8 388 z" stroke-linecap="round" />
</g>
</svg>