<?xml version="1.0" encoding="UTF-8" standalone="no" ?>
<!DOCTYPE svg PUBLIC "-//W3C//DTD SVG 1.1//EN" "http://www.w3.org/Graphics/SVG/1.1/DTD/svg11.dtd">
<svg xmlns="http://www.w3.org/2000/svg" xmlns:xlink="http://www.w3.org/1999/xlink" version="1.1" width="1080" height="1080" viewBox="0 0 1080 1080" xml:space="preserve">
<desc>Created with Fabric.js 5.2.4</desc>
<defs>
</defs>
<rect x="0" y="0" width="100%" height="100%" fill="transparent"></rect>
<g transform="matrix(1 0 0 1 540 540)" id="2b963192-8a6d-4198-ac49-fba0fdc374a7"  >
<rect style="stroke: none; stroke-width: 1; stroke-dasharray: none; stroke-linecap: butt; stroke-dashoffset: 0; stroke-linejoin: miter; stroke-miterlimit: 4; fill: rgb(255,255,255); fill-rule: nonzero; opacity: 1; visibility: hidden;" vector-effect="non-scaling-stroke"  x="-540" y="-540" rx="0" ry="0" width="1080" height="1080" />
</g>
<g transform="matrix(1 0 0 1 540 540)" id="dd082d76-8860-4a60-bdeb-87e7da4d8a8d"  >
</g>
<g transform="matrix(1 0 0 1 540 540)" id="6e320fa1-5ff5-4f08-ac1b-43ee8e053489"  >
<path style="stroke: rgb(0,0,0); stroke-width: 0; stroke-dasharray: none; stroke-linecap: butt; stroke-dashoffset: 0; stroke-linejoin: miter; stroke-miterlimit: 4; fill: rgb(255,255,255); fill-rule: nonzero; opacity: 1;" vector-effect="non-scaling-stroke"  transform=" translate(-256, -256)" d="M 256 8 C 119.252 8 8 119.252 8 256 C 8 392.748 119.252 504 256 504 C 392.748 504 504 392.748 504 256 C 504 119.25200000000001 392.748 8 256 8 z M 419.97 122.366 C 449.473 158.412 467.33900000000006 204.32299999999998 467.805 254.32100000000003 C 460.821 252.84400000000002 390.78700000000003 238.63900000000004 320.303 247.50300000000001 C 314.551 233.46200000000002 309.122 221.11 301.686 205.889 C 380.00699999999995 173.912 415.50399999999996 128.407 419.96999999999997 122.36600000000001 z M 396.421 97.87 C 392.611 103.297 360.724 146.156 285.4 174.389 C 250.688 110.613 212.21499999999997 58.221000000000004 206.35999999999996 50.381000000000014 C 273.53599999999994 34.18800000000002 344.32599999999996 51.65100000000002 396.42099999999994 97.87 z M 165.941 64.62 C 171.526 72.27900000000001 209.37900000000002 124.736 244.478 187.12900000000002 C 145.39100000000002 213.442 58.117999999999995 213.06300000000002 48.644000000000005 212.93800000000002 C 62.38 147.205 106.678 92.573 165.941 64.62 z M 44.17 256.323 C 44.17 254.15699999999998 44.213 252.00099999999998 44.278 249.84999999999997 C 53.546 250.03999999999996 156.198 251.36299999999997 261.984 219.70399999999995 C 268.048 231.57199999999995 273.841 243.61899999999994 279.15799999999996 255.65299999999996 C 202.55899999999997 277.22799999999995 132.96399999999997 339.17999999999995 98.62699999999995 397.95899999999995 C 64.794 360.405 44.17 310.73 44.17 256.323 z M 125.977 423.436 C 148.104 378.203 208.155 319.81399999999996 293.55600000000004 290.67999999999995 C 323.29600000000005 367.96299999999997 335.595 432.73299999999995 338.74500000000006 451.318 C 270.63300000000004 480.33099999999996 188.73000000000008 472.371 125.97700000000006 423.436 z M 374.35699999999997 431.92499999999995 C 372.186 419.03899999999993 360.91099999999994 357.02799999999996 333.205 280.89199999999994 C 399.585 270.26599999999996 457.905 287.6599999999999 465.152 289.94699999999995 C 455.71 348.8879999999999 421.87899999999996 399.79099999999994 374.35699999999997 431.92499999999995 z" stroke-linecap="round" />
</g>
</svg>