<?xml version="1.0" encoding="UTF-8" standalone="no" ?>
<!DOCTYPE svg PUBLIC "-//W3C//DTD SVG 1.1//EN" "http://www.w3.org/Graphics/SVG/1.1/DTD/svg11.dtd">
<svg xmlns="http://www.w3.org/2000/svg" xmlns:xlink="http://www.w3.org/1999/xlink" version="1.1" width="1080" height="1080" viewBox="0 0 1080 1080" xml:space="preserve">
<desc>Created with Fabric.js 5.2.4</desc>
<defs>
</defs>
<rect x="0" y="0" width="100%" height="100%" fill="transparent"></rect>
<g transform="matrix(1 0 0 1 540 540)" id="2b963192-8a6d-4198-ac49-fba0fdc374a7"  >
<rect style="stroke: none; stroke-width: 1; stroke-dasharray: none; stroke-linecap: butt; stroke-dashoffset: 0; stroke-linejoin: miter; stroke-miterlimit: 4; fill: rgb(255,255,255); fill-rule: nonzero; opacity: 1; visibility: hidden;" vector-effect="non-scaling-stroke"  x="-540" y="-540" rx="0" ry="0" width="1080" height="1080" />
</g>
<g transform="matrix(1 0 0 1 540 540)" id="dd082d76-8860-4a60-bdeb-87e7da4d8a8d"  >
</g>
<g transform="matrix(1 0 0 1 540 540)" id="731ba3fd-fc46-4a9f-ac10-5c9c7d56b367"  >
<path style="stroke: rgb(0,0,0); stroke-width: 0; stroke-dasharray: none; stroke-linecap: butt; stroke-dashoffset: 0; stroke-linejoin: miter; stroke-miterlimit: 4; fill: rgb(255,250,250); fill-rule: nonzero; opacity: 1;" vector-effect="non-scaling-stroke"  transform=" translate(-248, -256)" d="M 496 256 C 496 393 385 504 248 504 C 222.4 504 197.8 500.1 174.6 492.9 C 184.7 476.4 199.79999999999998 449.4 205.4 427.9 C 208.4 416.29999999999995 220.8 368.9 220.8 368.9 C 228.9 384.29999999999995 252.5 397.4 277.6 397.4 C 352.40000000000003 397.4 406.3 328.59999999999997 406.3 243.09999999999997 C 406.3 161.19999999999996 339.4 99.89999999999998 253.4 99.89999999999998 C 146.4 99.89999999999998 89.5 171.7 89.5 249.99999999999997 C 89.5 286.4 108.9 331.7 139.8 346.09999999999997 C 144.5 348.29999999999995 147 347.29999999999995 148.10000000000002 342.79999999999995 C 148.90000000000003 339.4 153.10000000000002 322.49999999999994 155.00000000000003 314.69999999999993 C 155.60000000000002 312.19999999999993 155.30000000000004 309.99999999999994 153.30000000000004 307.5999999999999 C 143.20000000000005 295.0999999999999 135.00000000000003 272.2999999999999 135.00000000000003 250.99999999999991 C 135.00000000000003 196.2999999999999 176.40000000000003 143.39999999999992 247.00000000000003 143.39999999999992 C 307.90000000000003 143.39999999999992 350.6 184.89999999999992 350.6 244.29999999999993 C 350.6 311.3999999999999 316.70000000000005 357.8999999999999 272.6 357.8999999999999 C 248.3 357.8999999999999 230.00000000000003 337.7999999999999 235.90000000000003 313.0999999999999 C 242.90000000000003 283.5999999999999 256.40000000000003 251.7999999999999 256.40000000000003 230.49999999999991 C 256.40000000000003 211.49999999999991 246.20000000000005 195.5999999999999 225.00000000000003 195.5999999999999 C 200.10000000000002 195.5999999999999 180.10000000000002 221.2999999999999 180.10000000000002 255.7999999999999 C 180.10000000000002 277.7999999999999 187.50000000000003 292.5999999999999 187.50000000000003 292.5999999999999 C 187.50000000000003 292.5999999999999 163.00000000000003 396.3999999999999 158.50000000000003 415.7999999999999 C 153.50000000000003 437.1999999999999 155.50000000000003 467.3999999999999 157.60000000000002 486.9999999999999 C 65.4 450.9 0 361.1 0 256 C 0 119 111 8 248 8 C 385 8 496 119 496 256 z" stroke-linecap="round" />
</g>
</svg>