<?xml version="1.0" encoding="UTF-8" standalone="no" ?>
<!DOCTYPE svg PUBLIC "-//W3C//DTD SVG 1.1//EN" "http://www.w3.org/Graphics/SVG/1.1/DTD/svg11.dtd">
<svg xmlns="http://www.w3.org/2000/svg" xmlns:xlink="http://www.w3.org/1999/xlink" version="1.1" width="1080" height="1080" viewBox="0 0 1080 1080" xml:space="preserve">
<desc>Created with Fabric.js 5.2.4</desc>
<defs>
</defs>
<rect x="0" y="0" width="100%" height="100%" fill="transparent"></rect>
<g transform="matrix(1 0 0 1 540 540)" id="2b963192-8a6d-4198-ac49-fba0fdc374a7"  >
<rect style="stroke: none; stroke-width: 1; stroke-dasharray: none; stroke-linecap: butt; stroke-dashoffset: 0; stroke-linejoin: miter; stroke-miterlimit: 4; fill: rgb(255,255,255); fill-rule: nonzero; opacity: 1; visibility: hidden;" vector-effect="non-scaling-stroke"  x="-540" y="-540" rx="0" ry="0" width="1080" height="1080" />
</g>
<g transform="matrix(1 0 0 1 540 540)" id="dd082d76-8860-4a60-bdeb-87e7da4d8a8d"  >
</g>
<g transform="matrix(1 0 0 1 540 540)" id="359deae9-988f-42b0-a4e5-d28a166522f1"  >
<path style="stroke: rgb(0,0,0); stroke-width: 0; stroke-dasharray: none; stroke-linecap: butt; stroke-dashoffset: 0; stroke-linejoin: miter; stroke-miterlimit: 4; fill: rgb(255,255,255); fill-rule: nonzero; opacity: 1;" vector-effect="non-scaling-stroke"  transform=" translate(-223.95, -255.95)" d="M 424.7 299.8 C 427.59999999999997 285.8 429.4 270.90000000000003 429.4 256 C 429.4 142.5 337.5 50.69999999999999 224.09999999999997 50.69999999999999 C 209.19999999999996 50.69999999999999 194.39999999999998 52.39999999999999 180.29999999999995 55.39999999999999 C 161.3 40.7 137.7 32 112 32 C 50.2 32 0 82.2 0 144 C 0 169.7 8.7 193.3 23.3 212.2 C 20.400000000000002 226.2 18.6 241.1 18.6 256 C 18.6 369.5 110.5 461.3 223.9 461.3 C 238.8 461.3 253.6 459.6 267.7 456.6 C 286.7 471.20000000000005 310.3 479.90000000000003 335.9 479.90000000000003 C 397.7 479.90000000000003 447.9 429.70000000000005 447.9 367.90000000000003 C 448 342.3 439.29999999999995 318.70000000000005 424.7 299.80000000000007 z M 230.1 391.3 C 164.5 391.3 109.6 362.1 109.6 326.3 C 109.6 310.3 118.6 295.7 139.1 295.7 C 170.29999999999998 295.7 173.2 340.59999999999997 227.2 340.59999999999997 C 252.89999999999998 340.59999999999997 269.5 329.2 269.5 314.29999999999995 C 269.5 295.59999999999997 253.5 292.69999999999993 227.5 286.29999999999995 C 165 270.9 109.7 264.29999999999995 109.7 199.09999999999997 C 109.7 139.89999999999998 168.3 117.99999999999997 218.8 117.99999999999997 C 273.90000000000003 117.99999999999997 329.6 139.89999999999998 329.6 173.39999999999998 C 329.6 190.29999999999998 318.20000000000005 205.2 299.3 205.2 C 271 205.2 270.1 171.7 224.3 171.7 C 198.60000000000002 171.7 182.3 178.7 182.3 194.2 C 182.3 214 203.10000000000002 216 251.4 227.2 C 292.8 236.5 342.1 254 342.1 304.79999999999995 C 342.1 363.9 285 391.29999999999995 230.10000000000002 391.29999999999995 z" stroke-linecap="round" />
</g>
</svg>